<?xml version="1.0"?>
<svg xmlns="http://www.w3.org/2000/svg" id="Layer_5" enable-background="new 0 0 64 64" height="512px" viewBox="0 0 64 64" width="512px"><g><path d="m17.002 3c-1.841 0-3.59.74-4.883 2h9.764c-1.292-1.26-3.04-2-4.881-2z" data-original="#000000" class="active-path" data-old_color="#000000" fill="#FFFFFF"/><path d="m25.002 43.794v6.408c3.794-.835 6-2.167 6-3.202 0-.805-1.629-2.257-6-3.206z" data-original="#000000" class="active-path" data-old_color="#000000" fill="#FFFFFF"/><path d="m36.279 13.461c-.814-.677-2.135-.556-2.813.259l-5.387 6.248-7.151-.969h-3.903c-.008 0-.015.001-.023.001s-.015-.001-.023-.001h-2.978c-3.859.001-6.999 3.141-6.999 7v2.772c0 2.331 1.896 4.229 4.228 4.229.829 0 1.634-.241 2.327-.697l5.251-3.458c.521-.3.868-.662 1.031-1.054.249-.598.213-1.23-.104-1.784-.529-.924-1.816-1.271-2.724-.745l-4.738 3.22c-.497.339-1.08.519-1.686.519h-1.587v-2h1.588c.202 0 .396-.06.561-.172l4.802-3.26c2.018-1.176 4.463-.404 5.521 1.446.622 1.089.699 2.381.213 3.547-.337.809-.971 1.495-1.832 1.986l-5.196 3.425c-1.021.672-2.206 1.027-3.427 1.027-.077 0-.151-.009-.228-.012v15.582c1.494.226 3.171.372 5 .412v-13.325c0-1.336.52-2.592 1.464-3.536l.829-.829 1.414 1.416-.829.828c-.566.565-.878 1.319-.878 2.121v13.326c1.829-.041 3.506-.187 5-.412v-26.572l4.984.006h.006c1.238 0 2.41-.54 3.215-1.482l5.34-6.252c.697-.838.581-2.103-.268-2.81z" data-original="#000000" class="active-path" data-old_color="#000000" fill="#FFFFFF"/><path d="m10.002 11h3.764c.382 0 .725-.212.895-.553.444-.892 1.342-1.447 2.341-1.447.998 0 1.896.555 2.341 1.448.17.34.513.552.895.552h3.765c.552 0 1-.448 1-1v-2c0-.552-.448-1-1-1h-14c-.552 0-1 .448-1 1v2c-.001.552.447 1 .999 1z" data-original="#000000" class="active-path" data-old_color="#000000" fill="#FFFFFF"/><path d="m17.554 11.342c-.208-.419-.896-.417-1.104-.001-.513 1.023-1.541 1.659-2.684 1.659h-3.066c1.136 2.407 3.548 4 6.302 4s5.165-1.593 6.301-4h-3.066c-1.143 0-2.172-.636-2.683-1.658z" data-original="#000000" class="active-path" data-old_color="#000000" fill="#FFFFFF"/><path d="m9.002 50.202v-6.408c-4.371.949-6 2.401-6 3.206 0 1.036 2.206 2.367 6 3.202z" data-original="#000000" class="active-path" data-old_color="#000000" fill="#FFFFFF"/><path d="m3.002 50.056v.944c0 1.631 5.454 4 14 4s14-2.369 14-4v-.944c-2.879 1.94-8.459 2.944-14 2.944s-11.121-1.004-14-2.944z" data-original="#000000" class="active-path" data-old_color="#000000" fill="#FFFFFF"/><path d="m37 7h20v4h-20z" data-original="#000000" class="active-path" data-old_color="#000000" fill="#FFFFFF"/><path d="m33 3v8.561c.601-.349 1.282-.56 2-.56v-6.001h24v8h-20.551c.816 1.412.728 3.237-.372 4.56l-5.077 5.943v3.497h28v-24zm4 22h-2v-2h2zm8 0h-6v-2h6zm0-4h-6v-2h6zm0-4h-4v-2h4zm14 8h-12v-10h12z" data-original="#000000" class="active-path" data-old_color="#000000" fill="#FFFFFF"/><path d="m49 17h8v6h-8z" data-original="#000000" class="active-path" data-old_color="#000000" fill="#FFFFFF"/><path d="m3.002 54.056v2.944c0 1.631 5.454 4 14 4s14-2.369 14-4v-2.944c-2.879 1.94-8.459 2.944-14 2.944s-11.121-1.004-14-2.944z" data-original="#000000" class="active-path" data-old_color="#000000" fill="#FFFFFF"/><path d="m39 33v10h4.697l6-4h5.803l4.5-6z" data-original="#000000" class="active-path" data-old_color="#000000" fill="#FFFFFF"/><path d="m39 45h4v4h-4z" data-original="#000000" class="active-path" data-old_color="#000000" fill="#FFFFFF"/><path d="m51 41h4v8h-4z" data-original="#000000" class="active-path" data-old_color="#000000" fill="#FFFFFF"/><path d="m57 49h4v-14l-4 5.333z" data-original="#000000" class="active-path" data-old_color="#000000" fill="#FFFFFF"/><path d="m45 49h4v-7.132l-4 2.667z" data-original="#000000" class="active-path" data-old_color="#000000" fill="#FFFFFF"/></g> </svg>
